<svg width="614" height="430" viewBox="0 0 614 430" fill="none" xmlns="http://www.w3.org/2000/svg">
<path d="M14.1431 256.909V210.886L101.927 72.8182H143.689V134.182H119.825L72.5238 209.182V210.886H202.069V256.909H14.1431ZM120.251 291V242.847L121.529 222.818V72.8182H176.927V291H120.251ZM306.947 296.966C287.131 296.895 270.015 292.314 255.597 283.223C241.18 274.132 230.065 261.028 222.252 243.912C214.44 226.795 210.569 206.27 210.64 182.335C210.711 158.33 214.617 137.946 222.359 121.185C230.171 104.423 241.251 91.6747 255.597 82.9389C270.015 74.2031 287.131 69.8352 306.947 69.8352C326.762 69.8352 343.879 74.2386 358.296 83.0455C372.714 91.7812 383.829 104.53 391.641 121.291C399.454 138.053 403.325 158.401 403.254 182.335C403.254 206.412 399.347 227.009 391.535 244.125C383.722 261.241 372.607 274.345 358.19 283.436C343.843 292.456 326.762 296.966 306.947 296.966ZM306.947 248.812C317.174 248.812 325.555 243.486 332.089 232.832C338.694 222.108 341.961 205.276 341.89 182.335C341.89 167.349 340.398 155.098 337.415 145.581C334.433 136.064 330.313 129.033 325.058 124.487C319.802 119.871 313.765 117.562 306.947 117.562C296.719 117.562 288.374 122.747 281.911 133.116C275.448 143.486 272.146 159.892 272.004 182.335C271.933 197.605 273.388 210.176 276.371 220.048C279.354 229.849 283.474 237.094 288.729 241.781C294.056 246.469 300.129 248.812 306.947 248.812ZM413.928 256.909V210.886L501.712 72.8182H543.474V134.182H519.61L472.309 209.182V210.886H601.854V256.909H413.928ZM520.036 291V242.847L521.315 222.818V72.8182H576.712V291H520.036Z" fill="#7E22CE" fill-opacity="0.7"/>
<path d="M32.1058 411V352.818H53.924C58.3937 352.818 62.1437 353.652 65.174 355.318C68.2233 356.985 70.5244 359.277 72.0774 362.193C73.6494 365.091 74.4354 368.386 74.4354 372.08C74.4354 375.811 73.6494 379.125 72.0774 382.023C70.5054 384.92 68.1854 387.203 65.1172 388.869C62.049 390.517 58.2706 391.341 53.782 391.341H39.3217V382.676H52.3615C54.9751 382.676 57.1153 382.222 58.782 381.312C60.4486 380.403 61.6797 379.153 62.4751 377.562C63.2895 375.972 63.6967 374.144 63.6967 372.08C63.6967 370.015 63.2895 368.197 62.4751 366.625C61.6797 365.053 60.4392 363.831 58.7536 362.96C57.0869 362.07 54.9373 361.625 52.3047 361.625H42.6456V411H32.1058ZM90.9112 411.881C88.1461 411.881 85.6555 411.388 83.4396 410.403C81.2427 409.4 79.5002 407.922 78.2124 405.972C76.9434 404.021 76.3089 401.616 76.3089 398.756C76.3089 396.294 76.7635 394.258 77.6726 392.648C78.5817 391.038 79.8222 389.75 81.3942 388.784C82.9661 387.818 84.737 387.089 86.7067 386.597C88.6953 386.085 90.7502 385.716 92.8714 385.489C95.4283 385.223 97.5021 384.987 99.093 384.778C100.684 384.551 101.839 384.21 102.559 383.756C103.298 383.282 103.667 382.553 103.667 381.568V381.398C103.667 379.258 103.032 377.6 101.763 376.426C100.495 375.252 98.6669 374.665 96.2805 374.665C93.7616 374.665 91.7635 375.214 90.2862 376.312C88.8279 377.411 87.843 378.708 87.3317 380.205L77.7294 378.841C78.487 376.189 79.737 373.973 81.4794 372.193C83.2218 370.394 85.3525 369.049 87.8714 368.159C90.3904 367.25 93.1745 366.795 96.2237 366.795C98.326 366.795 100.419 367.042 102.502 367.534C104.585 368.027 106.489 368.841 108.212 369.977C109.936 371.095 111.318 372.619 112.36 374.551C113.421 376.483 113.951 378.898 113.951 381.795V411H104.065V405.006H103.724C103.099 406.218 102.218 407.354 101.082 408.415C99.9643 409.456 98.5533 410.299 96.8487 410.943C95.1631 411.568 93.1839 411.881 90.9112 411.881ZM93.5817 404.324C95.6461 404.324 97.4358 403.917 98.951 403.102C100.466 402.269 101.631 401.17 102.445 399.807C103.279 398.443 103.695 396.956 103.695 395.347V390.205C103.373 390.47 102.824 390.716 102.048 390.943C101.29 391.17 100.438 391.369 99.4908 391.54C98.5438 391.71 97.6063 391.862 96.6783 391.994C95.7502 392.127 94.9453 392.241 94.2635 392.335C92.7294 392.544 91.3563 392.884 90.1442 393.358C88.9321 393.831 87.9756 394.494 87.2749 395.347C86.5741 396.18 86.2237 397.259 86.2237 398.585C86.2237 400.479 86.915 401.909 88.2976 402.875C89.6802 403.841 91.4415 404.324 93.5817 404.324ZM139.269 428.273C135.576 428.273 132.404 427.771 129.752 426.767C127.101 425.782 124.97 424.456 123.36 422.79C121.75 421.123 120.633 419.277 120.008 417.25L129.269 415.006C129.686 415.858 130.292 416.701 131.087 417.534C131.883 418.386 132.953 419.087 134.298 419.636C135.661 420.205 137.375 420.489 139.44 420.489C142.356 420.489 144.771 419.778 146.684 418.358C148.597 416.956 149.553 414.646 149.553 411.426V403.159H149.042C148.512 404.22 147.735 405.309 146.712 406.426C145.709 407.544 144.373 408.481 142.707 409.239C141.059 409.996 138.985 410.375 136.485 410.375C133.133 410.375 130.093 409.589 127.366 408.017C124.657 406.426 122.498 404.059 120.888 400.915C119.298 397.752 118.502 393.794 118.502 389.04C118.502 384.248 119.298 380.205 120.888 376.909C122.498 373.595 124.667 371.085 127.394 369.381C130.121 367.657 133.161 366.795 136.513 366.795C139.07 366.795 141.173 367.231 142.82 368.102C144.487 368.955 145.813 369.987 146.798 371.199C147.782 372.392 148.531 373.519 149.042 374.58H149.61V367.364H159.752V411.71C159.752 415.441 158.862 418.528 157.082 420.972C155.301 423.415 152.868 425.242 149.781 426.455C146.693 427.667 143.19 428.273 139.269 428.273ZM139.354 402.307C141.532 402.307 143.388 401.777 144.923 400.716C146.457 399.655 147.621 398.131 148.417 396.142C149.212 394.153 149.61 391.767 149.61 388.983C149.61 386.237 149.212 383.831 148.417 381.767C147.64 379.703 146.485 378.102 144.951 376.966C143.436 375.811 141.57 375.233 139.354 375.233C137.063 375.233 135.15 375.83 133.616 377.023C132.082 378.216 130.926 379.854 130.15 381.938C129.373 384.002 128.985 386.35 128.985 388.983C128.985 391.653 129.373 393.992 130.15 396C130.945 397.989 132.11 399.542 133.644 400.659C135.197 401.758 137.101 402.307 139.354 402.307ZM185.61 411.852C181.235 411.852 177.457 410.943 174.275 409.125C171.112 407.288 168.678 404.693 166.974 401.341C165.269 397.97 164.417 394.002 164.417 389.438C164.417 384.949 165.269 381.009 166.974 377.619C168.697 374.21 171.103 371.559 174.19 369.665C177.277 367.752 180.904 366.795 185.07 366.795C187.76 366.795 190.298 367.231 192.684 368.102C195.089 368.955 197.21 370.28 199.048 372.08C200.904 373.879 202.362 376.17 203.423 378.955C204.483 381.72 205.013 385.015 205.013 388.841V391.994H169.246V385.062H195.156C195.137 383.093 194.71 381.341 193.877 379.807C193.044 378.254 191.879 377.032 190.383 376.142C188.906 375.252 187.182 374.807 185.212 374.807C183.11 374.807 181.263 375.318 179.673 376.341C178.082 377.345 176.841 378.67 175.951 380.318C175.08 381.947 174.635 383.737 174.616 385.688V391.739C174.616 394.277 175.08 396.455 176.008 398.273C176.936 400.072 178.233 401.455 179.9 402.42C181.567 403.367 183.517 403.841 185.752 403.841C187.248 403.841 188.603 403.633 189.815 403.216C191.027 402.78 192.078 402.146 192.968 401.312C193.858 400.479 194.531 399.447 194.985 398.216L204.587 399.295C203.981 401.833 202.826 404.049 201.121 405.943C199.436 407.818 197.277 409.277 194.644 410.318C192.012 411.341 189 411.852 185.61 411.852ZM273.825 352.818V411H264.45L237.035 371.369H236.552V411H226.012V352.818H235.444L262.83 392.477H263.342V352.818H273.825ZM299.888 411.852C295.627 411.852 291.934 410.915 288.809 409.04C285.684 407.165 283.26 404.542 281.536 401.17C279.832 397.799 278.979 393.86 278.979 389.352C278.979 384.845 279.832 380.896 281.536 377.506C283.26 374.116 285.684 371.483 288.809 369.608C291.934 367.733 295.627 366.795 299.888 366.795C304.15 366.795 307.843 367.733 310.968 369.608C314.093 371.483 316.508 374.116 318.212 377.506C319.936 380.896 320.798 384.845 320.798 389.352C320.798 393.86 319.936 397.799 318.212 401.17C316.508 404.542 314.093 407.165 310.968 409.04C307.843 410.915 304.15 411.852 299.888 411.852ZM299.945 403.614C302.256 403.614 304.188 402.979 305.741 401.71C307.294 400.422 308.449 398.699 309.207 396.54C309.983 394.381 310.371 391.975 310.371 389.324C310.371 386.653 309.983 384.239 309.207 382.08C308.449 379.902 307.294 378.169 305.741 376.881C304.188 375.593 302.256 374.949 299.945 374.949C297.578 374.949 295.608 375.593 294.036 376.881C292.483 378.169 291.318 379.902 290.542 382.08C289.784 384.239 289.406 386.653 289.406 389.324C289.406 391.975 289.784 394.381 290.542 396.54C291.318 398.699 292.483 400.422 294.036 401.71C295.608 402.979 297.578 403.614 299.945 403.614ZM347.316 367.364V375.318H322.231V367.364H347.316ZM328.424 356.909H338.708V397.875C338.708 399.258 338.916 400.318 339.333 401.057C339.769 401.777 340.337 402.269 341.038 402.534C341.738 402.799 342.515 402.932 343.367 402.932C344.011 402.932 344.598 402.884 345.129 402.79C345.678 402.695 346.094 402.61 346.379 402.534L348.112 410.574C347.562 410.763 346.776 410.972 345.754 411.199C344.75 411.426 343.519 411.559 342.06 411.597C339.485 411.672 337.165 411.284 335.1 410.432C333.036 409.561 331.397 408.216 330.185 406.398C328.992 404.58 328.405 402.307 328.424 399.58V356.909ZM368.215 411V352.818H405.488V361.653H378.755V377.449H402.931V386.284H378.755V411H368.215ZM426.467 411.852C422.205 411.852 418.512 410.915 415.387 409.04C412.262 407.165 409.838 404.542 408.114 401.17C406.41 397.799 405.558 393.86 405.558 389.352C405.558 384.845 406.41 380.896 408.114 377.506C409.838 374.116 412.262 371.483 415.387 369.608C418.512 367.733 422.205 366.795 426.467 366.795C430.728 366.795 434.421 367.733 437.546 369.608C440.671 371.483 443.086 374.116 444.79 377.506C446.514 380.896 447.376 384.845 447.376 389.352C447.376 393.86 446.514 397.799 444.79 401.17C443.086 404.542 440.671 407.165 437.546 409.04C434.421 410.915 430.728 411.852 426.467 411.852ZM426.523 403.614C428.834 403.614 430.766 402.979 432.319 401.71C433.872 400.422 435.027 398.699 435.785 396.54C436.561 394.381 436.95 391.975 436.95 389.324C436.95 386.653 436.561 384.239 435.785 382.08C435.027 379.902 433.872 378.169 432.319 376.881C430.766 375.593 428.834 374.949 426.523 374.949C424.156 374.949 422.186 375.593 420.614 376.881C419.061 378.169 417.897 379.902 417.12 382.08C416.362 384.239 415.984 386.653 415.984 389.324C415.984 391.975 416.362 394.381 417.12 396.54C417.897 398.699 419.061 400.422 420.614 401.71C422.186 402.979 424.156 403.614 426.523 403.614ZM479.917 392.648V367.364H490.201V411H480.229V403.244H479.775C478.79 405.687 477.171 407.686 474.917 409.239C472.682 410.792 469.926 411.568 466.65 411.568C463.79 411.568 461.262 410.934 459.065 409.665C456.887 408.377 455.182 406.511 453.951 404.068C452.72 401.606 452.104 398.633 452.104 395.148V367.364H462.388V393.557C462.388 396.322 463.146 398.519 464.661 400.148C466.176 401.777 468.165 402.591 470.627 402.591C472.142 402.591 473.61 402.222 475.031 401.483C476.451 400.744 477.616 399.646 478.525 398.188C479.453 396.71 479.917 394.864 479.917 392.648ZM507.06 385.432V411H496.776V367.364H506.606V374.778H507.117C508.121 372.335 509.721 370.394 511.918 368.955C514.134 367.515 516.871 366.795 520.129 366.795C523.14 366.795 525.763 367.439 527.998 368.727C530.252 370.015 531.994 371.881 533.225 374.324C534.475 376.767 535.091 379.731 535.072 383.216V411H524.788V384.807C524.788 381.89 524.03 379.608 522.515 377.96C521.019 376.312 518.945 375.489 516.293 375.489C514.494 375.489 512.894 375.886 511.492 376.682C510.11 377.458 509.021 378.585 508.225 380.062C507.449 381.54 507.06 383.33 507.06 385.432ZM557.719 411.767C554.291 411.767 551.223 410.886 548.515 409.125C545.807 407.364 543.666 404.807 542.094 401.455C540.522 398.102 539.737 394.03 539.737 389.239C539.737 384.39 540.532 380.299 542.123 376.966C543.733 373.614 545.901 371.085 548.629 369.381C551.356 367.657 554.396 366.795 557.748 366.795C560.305 366.795 562.407 367.231 564.055 368.102C565.702 368.955 567.009 369.987 567.975 371.199C568.941 372.392 569.689 373.519 570.219 374.58H570.646V352.818H580.958V411H570.844V404.125H570.219C569.689 405.186 568.922 406.312 567.918 407.506C566.915 408.68 565.589 409.684 563.941 410.517C562.293 411.35 560.219 411.767 557.719 411.767ZM560.589 403.33C562.767 403.33 564.623 402.742 566.157 401.568C567.691 400.375 568.856 398.718 569.651 396.597C570.447 394.475 570.844 392.004 570.844 389.182C570.844 386.36 570.447 383.907 569.651 381.824C568.875 379.741 567.719 378.121 566.185 376.966C564.67 375.811 562.805 375.233 560.589 375.233C558.297 375.233 556.384 375.83 554.85 377.023C553.316 378.216 552.161 379.864 551.384 381.966C550.608 384.068 550.219 386.473 550.219 389.182C550.219 391.909 550.608 394.343 551.384 396.483C552.18 398.604 553.344 400.28 554.879 401.511C556.432 402.723 558.335 403.33 560.589 403.33Z" fill="#7E22CE" fill-opacity="0.7"/>
</svg>
