<svg width="current" height="current" viewBox="0 0 102 102" fill="none" xmlns="http://www.w3.org/2000/svg">
<path fill-rule="evenodd" clip-rule="evenodd" d="M51.1 71.554C61.6486 71.554 70.2 61.8041 70.2 49.777C70.2 37.7499 61.6486 28 51.1 28C40.5514 28 32 37.7499 32 49.777C32 61.8041 40.5514 71.554 51.1 71.554ZM51 64.21C57.6274 64.21 63 57.7025 63 49.675C63 41.6475 57.6274 35.14 51 35.14C44.3726 35.14 39 41.6475 39 49.675C39 57.7025 44.3726 64.21 51 64.21Z" fill="#9333ea"/>
<path d="M8.24719 0C7.6512 0 7.07962 0.241492 6.65819 0.671351C6.23676 1.10121 6 1.68422 6 2.29213V99.7079C6 100.974 7.0061 102 8.24719 102H11.317C12.5581 102 13.5642 100.974 13.5642 99.7079V21.8997L47.634 100.633C47.9934 101.464 48.7997 102 49.6898 102H52.7596C53.6498 102 54.456 101.464 54.8155 100.633L88.8852 21.8997V99.7079C88.8852 100.974 89.8913 102 91.1324 102H94.2023C95.4433 102 96.4494 100.974 96.4494 99.7079V2.29213C96.4494 1.02622 95.4433 0 94.2023 0H91.5162C90.6256 0 89.8191 0.536433 89.4599 1.36765L51.2247 89.849L12.9896 1.36765C12.6304 0.536434 11.8239 0 10.9333 0H8.24719Z" fill="#9333ea"/>
<path d="M99.7079 72.2031C100.974 72.2031 102 71.1769 102 69.911V66.4728C102 65.2069 100.974 64.1807 99.7079 64.1807L2.29214 64.1807C1.02623 64.1807 0 65.2069 0 66.4728V69.911C0 71.1769 1.02623 72.2031 2.29214 72.2031L99.7079 72.2031Z" fill="#9333ea"/>
</svg>
